<svg xmlns="http://www.w3.org/2000/svg" width="1200" height="630" viewBox="0 0 1200 630" role="img" aria-labelledby="title desc">
  <title id="title">HTMLxMarkdown share card</title>
  <desc id="desc">A link preview image for a local Markdown reader and section editor.</desc>
  <rect width="1200" height="630" fill="#f6f7f4" />
  <rect x="76" y="70" width="1048" height="490" rx="24" fill="#ffffff" stroke="#d9ded6" stroke-width="2" />
  <rect x="118" y="112" width="964" height="56" rx="10" fill="#eff4f1" />
  <circle cx="152" cy="140" r="8" fill="#18766a" />
  <circle cx="180" cy="140" r="8" fill="#d09a40" />
  <circle cx="208" cy="140" r="8" fill="#64716b" />
  <rect x="118" y="206" width="230" height="300" rx="14" fill="#fbfcfa" stroke="#d9ded6" />
  <rect x="392" y="206" width="312" height="300" rx="14" fill="#fbfcfa" stroke="#d9ded6" />
  <rect x="748" y="206" width="334" height="300" rx="14" fill="#fbfcfa" stroke="#d9ded6" />
  <path d="M162 270h118M162 314h148M162 358h104M162 402h128" stroke="#64716b" stroke-width="14" stroke-linecap="round" />
  <path d="M434 274h210M434 320h176M434 366h220M434 412h138" stroke="#1d252c" stroke-width="14" stroke-linecap="round" />
  <path d="M794 280l-34 34 34 34M910 280l34 34-34 34M828 406h142" fill="none" stroke="#18766a" stroke-width="18" stroke-linecap="round" stroke-linejoin="round" />
  <text x="118" y="594" fill="#18766a" font-family="Inter, ui-sans-serif, system-ui, -apple-system, BlinkMacSystemFont, 'Segoe UI', sans-serif" font-size="34" font-weight="750">HTMLxMarkdown</text>
  <text x="440" y="594" fill="#31403d" font-family="Inter, ui-sans-serif, system-ui, -apple-system, BlinkMacSystemFont, 'Segoe UI', sans-serif" font-size="28">Read local Markdown as HTML. Edit one section at a time.</text>
</svg>
